<svg width="24" height="24" viewBox="0 0 24 24" fill="none" xmlns="http://www.w3.org/2000/svg">
<path fill-rule="evenodd" clip-rule="evenodd" d="M7.67021 2H16.3402C19.7302 2 22.0002 4.38 22.0002 7.92V16.09C22.0002 19.62 19.7302 22 16.3402 22H7.67021C4.28021 22 2.00021 19.62 2.00021 16.09V7.92C2.00021 4.38 4.28021 2 7.67021 2ZM7.52021 13.2C6.86021 13.2 6.32021 12.66 6.32021 12C6.32021 11.34 6.86021 10.801 7.52021 10.801C8.18021 10.801 8.72021 11.34 8.72021 12C8.72021 12.66 8.18021 13.2 7.52021 13.2ZM10.8002 12C10.8002 12.66 11.3402 13.2 12.0002 13.2C12.6602 13.2 13.2002 12.66 13.2002 12C13.2002 11.34 12.6602 10.801 12.0002 10.801C11.3402 10.801 10.8002 11.34 10.8002 12ZM15.2802 12C15.2802 12.66 15.8202 13.2 16.4802 13.2C17.1402 13.2 17.6702 12.66 17.6702 12C17.6702 11.34 17.1402 10.801 16.4802 10.801C15.8202 10.801 15.2802 11.34 15.2802 12Z" fill="#200E32"/>
</svg>
