<svg width="40" height="40" viewBox="0 0 40 40" fill="none" xmlns="http://www.w3.org/2000/svg">
<circle cx="20" cy="20" r="20" fill="url(#paint0_linear_17_320)"/>
<path d="M25.0499 28.28C24.0699 29.23 22.9999 29.08 21.9699 28.63C20.8799 28.17 19.8799 28.15 18.7299 28.63C17.2899 29.25 16.5299 29.07 15.6699 28.28C10.7899 23.25 11.5099 15.59 17.0499 15.31C18.3999 15.38 19.3399 16.05 20.1299 16.11C21.3099 15.87 22.4399 15.18 23.6999 15.27C25.2099 15.39 26.3499 15.99 27.0999 17.07C23.9799 18.94 24.7199 23.05 27.5799 24.2C27.0099 25.7 26.2699 27.19 25.0399 28.29L25.0499 28.28ZM20.0299 15.25C19.8799 13.02 21.6899 11.18 23.7699 11C24.0599 13.58 21.4299 15.5 20.0299 15.25Z" fill="white"/>
<defs>
<linearGradient id="paint0_linear_17_320" x1="-0.326087" y1="19.657" x2="40" y2="19.657" gradientUnits="userSpaceOnUse">
<stop offset="0.508678" stop-color="#FF7C03"/>
<stop offset="1" stop-color="#FF9A03"/>
</linearGradient>
</defs>
</svg>
