<svg width="17" height="10" viewBox="0 0 17 10" fill="none" xmlns="http://www.w3.org/2000/svg">
<path d="M8.49523 4.53254C3.74184 4.53254 2.23901 0.37731 2.23901 0.37731C2.16092 0.155789 1.95427 0.00651573 1.72054 0.000141047C1.40818 -0.00676486 1.14894 0.240785 1.14203 0.553145C1.13991 0.628579 1.15319 0.704013 1.18081 0.774134C1.18081 0.774134 1.64988 1.98107 2.78511 3.19651L0.200704 5.51053C-0.0383469 5.71239 -0.0680954 6.07044 0.134301 6.30895C0.336697 6.54747 0.694211 6.57722 0.93273 6.37536C1.82678 5.5748 2.72561 4.77053 3.62179 3.96891C4.2805 4.50386 5.09221 4.97983 6.07232 5.29166L4.59552 8.23783C4.45528 8.51831 4.56949 8.85883 4.84997 8.99801C5.13046 9.13719 5.47098 9.02351 5.61016 8.74302L7.20383 5.55462C7.6134 5.6189 8.03679 5.66511 8.49683 5.66511C8.95527 5.66511 9.37972 5.6189 9.78876 5.55462L11.3835 8.74302C11.5089 9.02935 11.8425 9.16003 12.1288 9.03466C12.4146 8.9093 12.5453 8.57516 12.4204 8.28936C11.9222 7.29544 11.4191 6.28983 10.9192 5.29166C11.9009 4.97983 12.7105 4.50439 13.3703 3.96891L16.0349 6.35358C16.258 6.57351 16.6161 6.57191 16.836 6.34986C17.0559 6.12834 17.0548 5.76976 16.8317 5.54984C15.9605 4.76947 15.0798 3.98113 14.2059 3.19811C15.3422 1.98267 15.8107 0.773603 15.8107 0.773603C15.9223 0.48143 15.7767 0.154196 15.484 0.0426389C15.1918 -0.0689181 14.8646 0.0771684 14.752 0.371466C14.7504 0.370935 13.2486 4.53254 8.49523 4.53254Z" fill="black"/>
</svg>
