<svg width="16" height="11" viewBox="0 0 16 11" fill="none" xmlns="http://www.w3.org/2000/svg">
<g opacity="0.3">
<path d="M7.87598 10.7814C6.87189 10.7814 5.835 10.5321 4.79154 10.0431C3.97449 9.65924 3.15088 9.12766 2.34368 8.46156C0.981934 7.33606 0.141917 6.22042 0.105822 6.17448C-0.0352741 5.98744 -0.0352741 5.7315 0.105822 5.54447C0.141917 5.49853 0.981934 4.38288 2.34368 3.25739C3.15088 2.59128 3.97449 2.05971 4.79154 1.6758C5.835 1.18688 6.87189 0.9375 7.87598 0.9375C8.88006 0.9375 9.91695 1.18688 10.9604 1.6758C11.7775 2.05971 12.6011 2.59128 13.4083 3.25739C14.77 4.38288 15.6133 5.49853 15.6461 5.54447C15.7872 5.7315 15.7872 5.98744 15.6461 6.17448C15.61 6.22042 14.77 7.33606 13.4083 8.46156C12.6011 9.12766 11.7775 9.65924 10.9604 10.0431C9.91695 10.5321 8.88006 10.7814 7.87598 10.7814ZM1.20178 5.85947C2.02539 6.83402 4.7456 9.73142 7.87598 9.73142C11.0129 9.73142 13.7266 6.83402 14.5502 5.85947C13.7266 4.88492 11.0064 1.98752 7.87598 1.98752C4.73904 1.98752 2.02539 4.88492 1.20178 5.85947Z" fill="black"/>
<path d="M7.87622 8.22216C6.57354 8.22216 5.51367 7.1623 5.51367 5.85962C5.51367 4.55694 6.57354 3.49707 7.87622 3.49707C9.1789 3.49707 10.2388 4.55694 10.2388 5.85962C10.2388 7.1623 9.1789 8.22216 7.87622 8.22216ZM7.87622 4.54709C7.15105 4.54709 6.56369 5.13445 6.56369 5.85962C6.56369 6.58479 7.15105 7.17214 7.87622 7.17214C8.60139 7.17214 9.18874 6.58479 9.18874 5.85962C9.18874 5.13445 8.60139 4.54709 7.87622 4.54709Z" fill="black"/>
</g>
</svg>
