<svg width="40" height="40" viewBox="0 0 40 40" fill="none" xmlns="http://www.w3.org/2000/svg">
<circle cx="20" cy="20" r="20" fill="url(#paint0_linear_17_292)"/>
<path d="M29.35 19.1H20.18V21.83H26.69C26.36 25.64 23.19 27.27 20.19 27.27C16.36 27.27 13 24.25 13 20C13 15.9 16.2 12.73 20.2 12.73C23.29 12.73 25.1 14.7 25.1 14.7L27 12.72C27 12.72 24.56 10 20.1 10C14.42 10 10.03 14.8 10.03 20C10.03 25.05 14.16 30 20.25 30C25.6 30 29.5 26.33 29.5 20.91C29.5 19.76 29.35 19.1 29.35 19.1Z" fill="white"/>
<defs>
<linearGradient id="paint0_linear_17_292" x1="-0.326087" y1="19.657" x2="40" y2="19.657" gradientUnits="userSpaceOnUse">
<stop offset="0.508678" stop-color="#FF7C03"/>
<stop offset="1" stop-color="#FF9A03"/>
</linearGradient>
</defs>
</svg>
