<svg width="250" height="197" viewBox="0 0 250 197" fill="none" xmlns="http://www.w3.org/2000/svg">
<g opacity="0.85">
<path d="M113.632 72.8639L112.61 71.7501C112.25 71.397 111.907 71.0287 111.54 70.6849C110.814 69.9898 110.051 69.3352 109.254 68.7239C108.458 68.1162 107.622 67.5629 106.752 67.0679C105.899 66.5671 104.992 66.1656 104.048 65.8711L104.045 65.8702C103.984 65.8528 103.933 65.8129 103.901 65.7587C103.87 65.7046 103.86 65.6403 103.874 65.5792C104.045 64.8533 104.448 64.2032 105.022 63.7279C105.597 63.2752 106.27 62.9628 106.986 62.8158C107.682 62.6682 108.393 62.6058 109.103 62.6299C109.45 62.632 109.82 62.671 110.145 62.691C110.453 62.7152 110.764 62.6884 111.064 62.6119C111.514 62.501 111.93 62.2818 112.276 61.9734C112.622 61.6649 112.887 61.2767 113.048 60.8424C113.152 60.5692 113.217 60.2175 113.304 59.8869L114.284 55.8885C114.306 55.8013 114.359 55.7253 114.434 55.6758C114.829 55.4169 115.227 55.1543 115.26 54.9271C115.254 54.5497 115.129 54.1838 114.903 53.8814C114.671 53.5131 114.383 53.1834 114.05 52.9041C113.853 52.7341 113.675 52.5441 113.518 52.3372C113.351 52.1097 113.229 51.8522 113.159 51.5787C113.04 51.0761 113.013 50.5561 113.081 50.044C113.136 49.6026 113.145 49.1564 113.106 48.7132C113.062 48.2842 112.954 47.8643 112.785 47.4678C112.698 47.2743 112.595 47.0885 112.478 46.9123C112.367 46.7471 112.239 46.5952 112.094 46.4596L112.316 46.5412L107.125 46.3753L101.934 46.1735L102.216 45.9855C100.309 50.7991 98.3728 55.5981 96.5087 60.4259C96.2918 61.0363 95.9859 61.6088 95.7225 62.1993L94.9043 63.959L93.2914 67.4884L91.6833 71.0198C91.145 72.1827 90.8107 73.4295 90.695 74.7058C90.4287 77.2606 90.6058 79.8422 91.2183 82.3367C91.524 83.5793 91.9291 84.7954 92.4296 85.9732C92.6759 86.5647 92.9541 87.1347 93.2443 87.7114C93.5331 88.2916 93.8297 88.8684 94.1076 89.4538C96.3674 94.1223 98.4358 98.875 100.313 103.712C100.325 103.742 100.333 103.774 100.337 103.807L100.337 103.815C100.723 107.171 101.582 110.455 102.889 113.57C103.216 114.341 103.554 115.132 103.934 115.86C105.077 118.057 107.021 119.731 109.364 120.535C110.136 120.805 110.938 120.979 111.753 121.051C112.551 121.108 113.435 121.095 114.28 121.114C115.986 121.135 117.693 121.164 119.399 121.2L129.638 121.402L129.643 121.402C129.732 121.404 129.817 121.441 129.88 121.505C129.942 121.569 129.976 121.655 129.976 121.744C129.962 123.622 129.939 125.482 130.03 127.346C130.116 129.209 130.286 131.07 130.528 132.922C130.774 134.773 131.078 136.618 131.44 138.455C131.803 140.29 132.225 142.115 132.67 143.935C132.673 143.946 132.671 143.958 132.665 143.968C132.659 143.977 132.65 143.984 132.639 143.987C132.628 143.99 132.616 143.989 132.606 143.983C132.597 143.977 132.589 143.968 132.586 143.957C131.529 140.355 130.695 136.69 130.089 132.985C129.802 131.127 129.587 129.257 129.456 127.379C129.317 125.502 129.299 123.613 129.292 121.744L129.63 122.086L119.389 122.03C117.682 122.024 115.975 122.01 114.269 121.987C113.407 121.97 112.583 121.989 111.678 121.929C109.891 121.787 108.17 121.195 106.675 120.207C105.179 119.22 103.958 117.87 103.125 116.284C102.716 115.499 102.374 114.721 102.043 113.919C100.729 110.717 99.8757 107.346 99.5085 103.904L99.5331 104.007C98.6197 101.598 97.6452 99.2019 96.6459 96.8217C95.6495 94.439 94.6055 92.0774 93.514 89.7369L92.6863 87.9866C92.4073 87.4018 92.1305 86.8026 91.8924 86.1944C91.4062 84.9793 91.0185 83.727 90.7329 82.4498C90.1587 79.8954 90.0277 77.2613 90.3457 74.6626C90.431 74.0139 90.5567 73.3711 90.7222 72.7381C90.8054 72.4218 90.9001 72.1076 91.0105 71.798C91.1249 71.4921 91.255 71.1922 91.4001 70.8995L93.0323 67.3786C94.1135 65.0285 95.2284 62.6922 96.2313 60.3093C98.0819 55.4787 99.8601 50.6194 101.668 45.7746C101.689 45.7186 101.727 45.6705 101.776 45.6368C101.825 45.603 101.884 45.5854 101.944 45.5863L101.95 45.5865L107.144 45.6732L112.337 45.7957L112.348 45.796C112.426 45.7978 112.501 45.8266 112.56 45.8774C112.764 46.0567 112.944 46.2616 113.096 46.487C113.242 46.7002 113.368 46.9255 113.475 47.1603C113.68 47.6277 113.812 48.1236 113.867 48.6309C113.914 49.1242 113.91 49.6211 113.853 50.1134C113.799 50.5353 113.815 50.9634 113.903 51.3797C114.015 51.7657 114.248 52.1056 114.567 52.3496C114.95 52.6807 115.28 53.069 115.545 53.5006C115.678 53.7217 115.791 53.9541 115.883 54.1952C115.999 54.481 116.03 54.794 115.973 55.0971C115.885 55.402 115.697 55.6691 115.441 55.8567C115.23 56.0228 115.027 56.1478 114.834 56.2761L114.984 56.0634L113.969 60.0534C113.877 60.3847 113.82 60.7124 113.681 61.0823C113.477 61.6157 113.147 62.0914 112.717 62.468C112.288 62.8446 111.773 63.1107 111.218 63.2432C110.85 63.333 110.47 63.3593 110.094 63.3209C109.735 63.2902 109.423 63.2495 109.083 63.2394C108.421 63.2024 107.757 63.2459 107.105 63.3691C106.47 63.4841 105.87 63.7453 105.352 64.1322C104.851 64.5288 104.494 65.0795 104.337 65.6992L104.164 65.4074C105.143 65.7317 106.081 66.1691 106.96 66.7108C107.828 67.2426 108.659 67.8331 109.447 68.4782C110.232 69.1219 110.98 69.8083 111.689 70.5342C112.048 70.8913 112.379 71.2754 112.723 71.6465L113.698 72.8084C113.705 72.817 113.709 72.8282 113.708 72.8395C113.707 72.8507 113.702 72.8612 113.694 72.8687C113.685 72.8762 113.674 72.88 113.663 72.8794C113.651 72.8788 113.641 72.8738 113.633 72.8655L113.632 72.8639Z" fill="white"/>
<path d="M134.869 154.297C134.921 155.059 134.902 155.824 134.812 156.583C134.71 157.341 134.535 158.087 134.289 158.812C134.05 159.537 133.764 160.244 133.478 160.95C133.211 161.656 133.016 162.388 132.897 163.133C132.665 164.632 132.547 166.147 132.544 167.663C132.526 169.18 132.566 170.702 132.669 172.212L132.519 172.073L140.018 172.04L139.835 172.223L139.814 167.32L139.813 166.996L140.108 167.137C142.756 168.437 145.475 169.588 148.251 170.584C149.64 171.061 151.058 171.447 152.497 171.74C153.923 172.036 155.388 172.094 156.833 171.91C157.548 171.806 158.251 171.623 158.927 171.366C159.26 171.256 159.582 171.116 159.889 170.948C160.013 170.886 160.115 170.785 160.179 170.662C160.243 170.538 160.266 170.397 160.245 170.26C160.169 169.941 160.015 169.647 159.798 169.402C159.572 169.127 159.325 168.87 159.058 168.635C158.512 168.156 157.93 167.72 157.317 167.33L149.974 162.334L149.079 161.725L150.153 161.882C151.49 162.077 152.83 162.275 154.174 162.367C155.508 162.492 156.852 162.473 158.183 162.31C159.486 162.136 160.781 161.639 161.553 160.581L161.823 160.176C161.907 160.036 161.979 159.888 162.058 159.745C162.21 159.473 162.32 159.179 162.383 158.874C162.39 158.583 162.291 158.299 162.103 158.076C161.899 157.828 161.665 157.607 161.406 157.419C160.289 156.678 159.078 156.092 157.805 155.675C156.534 155.22 155.234 154.84 153.924 154.505C152.61 154.198 151.291 153.838 149.981 153.49L146.044 152.444L145.895 152.404L145.96 152.265C147.633 148.723 149.188 145.122 150.687 141.502C152.182 137.879 153.599 134.222 154.864 130.513C156.164 126.818 157.247 123.05 158.107 119.228C158.535 117.321 158.806 115.383 158.917 113.432C158.971 112.463 158.919 111.491 158.762 110.534C158.627 109.583 158.23 108.689 157.615 107.951C156.986 107.22 156.24 106.598 155.407 106.112C154.571 105.619 153.694 105.197 152.787 104.851C150.959 104.173 149.074 103.654 147.156 103.302C143.306 102.611 139.409 102.21 135.499 102.103C134.521 102.067 133.543 102.047 132.565 102.037L131.098 102.033C130.607 102.025 130.131 102.064 129.599 102.01C128.948 101.935 128.324 101.714 127.771 101.362C127.219 101.011 126.754 100.539 126.41 99.9815C126.373 99.9275 126.343 99.8695 126.312 99.8124L126.265 99.7265L126.242 99.6836L126.23 99.6621C126.026 99.995 126.491 99.1825 126.455 99.2672L126.811 99.2306C127.049 99.213 127.285 99.1804 127.518 99.1331L127.868 99.0686C127.982 99.041 128.094 99.0051 128.207 98.9741C128.653 98.8548 129.078 98.6646 129.464 98.4107C129.835 98.1616 130.137 97.8226 130.342 97.4251C130.76 96.632 130.712 95.6495 130.511 94.7374C130.279 93.808 129.934 92.9108 129.483 92.0658C129.041 91.2092 128.533 90.3881 127.963 89.6099L127.901 89.5253L127.905 89.425L128.756 68.3672L128.766 68.1114L129.024 68.0802C129.589 67.9984 130.141 67.8473 130.669 67.6305C131.213 67.4142 131.742 67.1641 132.254 66.8817C132.771 66.6038 133.276 66.2981 133.772 65.9782C134.266 65.6582 134.758 65.3215 135.222 64.9713L135.258 64.9442L135.293 64.9309C136.239 64.5732 137.214 64.2976 138.208 64.1072C138.33 64.0846 138.464 64.0639 138.575 64.0399C138.685 64.02 138.794 63.9929 138.9 63.9587C139.108 63.897 139.304 63.8013 139.48 63.6754C139.648 63.5586 139.787 63.4044 139.885 63.2248C139.977 63.0743 140.01 62.8953 139.979 62.7218C139.975 62.6961 139.966 62.6713 139.952 62.6494C139.939 62.6274 139.92 62.6087 139.898 62.5946C139.888 62.5754 139.854 62.5834 139.831 62.5681C139.785 62.5667 139.747 62.5572 139.696 62.5578C139.469 62.5637 139.243 62.5923 139.021 62.6431C138.553 62.74 138.08 62.8759 137.608 63.0161C137.133 63.1556 136.663 63.3066 136.171 63.4371C135.885 63.5329 135.58 63.5541 135.284 63.4986C135.182 63.4683 135.087 63.4168 135.006 63.3474C134.924 63.2699 134.863 63.1722 134.829 63.0641C134.778 62.8854 134.782 62.6954 134.84 62.5189L134.876 62.3905L135.013 62.3394L139.633 60.621L139.606 60.6326C139.765 60.5613 139.91 60.4642 140.036 60.3451C140.067 60.3184 140.089 60.2831 140.099 60.2438C140.101 60.2365 140.098 60.2085 140.053 60.1588C139.931 60.0423 139.787 59.9505 139.629 59.888C139.454 59.8106 139.273 59.7466 139.088 59.6967L138.221 59.4628L139.068 59.1838C139.45 59.0424 139.792 58.812 140.066 58.5116C140.139 58.4369 140.208 58.3586 140.273 58.2777L140.366 58.1568C140.384 58.1326 140.404 58.0856 140.424 58.0518C140.455 57.9894 140.472 57.921 140.474 57.8513C140.47 57.7994 140.447 57.7508 140.41 57.7146C140.275 57.6002 140.113 57.5221 139.939 57.4878C139.735 57.4374 139.528 57.4032 139.319 57.3856C138.887 57.3498 138.452 57.3468 138.02 57.3767L137.794 57.3915L137.752 57.1522C137.741 56.9707 137.678 56.7962 137.571 56.6496C137.451 56.5208 137.291 56.4368 137.117 56.4114C136.691 56.3696 136.26 56.4132 135.851 56.5396C134.977 56.7968 134.127 57.1293 133.311 57.5336C132.481 57.9275 131.662 58.3526 130.84 58.7767C130.428 58.9886 130.015 59.2001 129.595 59.4024C129.168 59.6254 128.718 59.8005 128.252 59.9246C128.016 59.9649 127.787 59.9982 127.546 60.0181C127.294 60.0474 127.04 60.0377 126.792 59.9891C126.528 59.922 126.29 59.776 126.111 59.5706C125.953 59.3904 125.806 59.2017 125.669 59.0052C125.146 58.2628 124.514 57.6037 123.794 57.0505C123.446 56.7713 123.063 56.5396 122.654 56.3612C122.466 56.2792 122.262 56.2368 122.056 56.2366C121.968 56.2377 121.882 56.2603 121.805 56.3025C121.728 56.3447 121.662 56.4052 121.614 56.4787C121.457 56.8653 121.452 57.2969 121.601 57.6869C121.724 58.1215 121.887 58.5436 122.089 58.9477C122.284 59.3556 122.511 59.7473 122.769 60.1188L122.882 60.2591C122.923 60.3209 122.954 60.3886 122.974 60.4599C123.01 60.5833 123.031 60.7106 123.036 60.839C123.048 61.0794 123.038 61.3204 123.008 61.5592C122.981 61.7951 122.94 62.0292 122.885 62.2603C122.827 62.4902 122.776 62.7034 122.734 62.9295C122.65 63.3772 122.598 63.8303 122.577 64.2854L122.569 64.6261C122.572 64.7346 122.583 64.8428 122.6 64.95C122.632 65.1738 122.674 65.4009 122.715 65.6285C122.806 66.0872 122.873 66.5501 122.916 67.0156C122.944 67.2628 122.929 67.513 122.871 67.7549L122.755 68.0805L122.659 68.4109L122.295 69.7461C121.357 73.3223 120.472 76.915 119.586 80.5061L119.554 80.6341L119.493 80.514C119.373 80.2955 119.242 80.0835 119.1 79.879L118.67 79.2587C118.377 78.8486 118.078 78.4433 117.776 78.0401L117.822 78.0051C118.129 78.4045 118.435 78.8061 118.733 79.213L119.173 79.8292C119.322 80.0368 119.459 80.2525 119.583 80.4753L119.49 80.4832C120.328 76.8796 121.164 73.2767 122.054 69.6839C122.167 69.2348 122.28 68.7865 122.405 68.3384L122.5 68.0021L122.614 67.6733C122.659 67.4638 122.668 67.2482 122.642 67.0355C122.596 66.5804 122.527 66.128 122.435 65.6799C122.393 65.4527 122.348 65.2254 122.313 64.9918C122.293 64.8707 122.281 64.7485 122.276 64.6259L122.283 64.2732C122.301 63.8039 122.351 63.3365 122.434 62.8742C122.475 62.645 122.53 62.4083 122.584 62.1895C122.634 61.97 122.671 61.7478 122.695 61.5241C122.722 61.3037 122.729 61.0815 122.717 60.8599C122.712 60.7571 122.696 60.6552 122.667 60.5564C122.635 60.4519 122.615 60.4436 122.51 60.3153C122.237 59.929 121.996 59.521 121.789 59.0953C121.574 58.6731 121.4 58.2316 121.267 57.7767C121.199 57.5418 121.158 57.3 121.144 57.0559C121.122 56.7879 121.182 56.5194 121.316 56.2862C121.394 56.1653 121.5 56.0651 121.626 55.9939C121.751 55.9227 121.892 55.8827 122.036 55.8772C122.294 55.8723 122.55 55.9214 122.788 56.0214C123.23 56.2091 123.645 56.455 124.022 56.7527C124.775 57.323 125.438 58.0037 125.988 58.7718C126.266 59.1429 126.516 59.5243 126.884 59.5944C127.316 59.6407 127.754 59.6143 128.178 59.5161C128.605 59.3941 129.017 59.2276 129.409 59.0195C129.821 58.8181 130.23 58.6049 130.639 58.3904C131.457 57.961 132.277 57.5276 133.115 57.1226C133.954 56.6996 134.829 56.3508 135.729 56.0801C136.204 55.9308 136.706 55.8808 137.202 55.9333C137.488 55.977 137.751 56.1179 137.945 56.3323C138.12 56.555 138.225 56.8248 138.246 57.1073L137.979 56.8828C138.44 56.8472 138.902 56.847 139.363 56.8822C139.601 56.9006 139.836 56.938 140.068 56.994C140.335 57.0485 140.583 57.175 140.783 57.3599C140.905 57.4841 140.978 57.6473 140.99 57.8204C140.995 57.9754 140.963 58.1293 140.896 58.2692C140.865 58.334 140.83 58.3969 140.792 58.4575C140.755 58.5093 140.719 58.5569 140.681 58.604C140.607 58.6983 140.528 58.788 140.445 58.8746C140.114 59.2398 139.7 59.5198 139.238 59.691L139.218 59.1781C139.433 59.234 139.644 59.3067 139.848 59.3954C140.077 59.4862 140.285 59.6226 140.459 59.7965C140.519 59.8591 140.567 59.9331 140.599 60.0143C140.631 60.0955 140.646 60.1822 140.644 60.2693C140.631 60.4368 140.559 60.5942 140.442 60.7139C140.271 60.8852 140.072 61.025 139.853 61.1268L139.843 61.1322L139.827 61.1384L135.216 62.8814L135.389 62.7019C135.371 62.7629 135.368 62.8275 135.382 62.8897C135.395 62.9233 135.389 62.9192 135.445 62.9417C135.64 62.9626 135.838 62.94 136.024 62.8756C136.49 62.7514 136.965 62.5989 137.442 62.4578C137.92 62.3156 138.401 62.1757 138.904 62.0706C139.167 62.0106 139.435 61.9777 139.704 61.9727C139.783 61.9753 139.861 61.982 139.939 61.9927C140.037 62.0115 140.13 62.0484 140.215 62.1016C140.381 62.2087 140.5 62.3768 140.545 62.5701C140.617 62.8869 140.567 63.2194 140.403 63.5005C140.264 63.7586 140.066 63.981 139.827 64.1502C139.599 64.3138 139.346 64.4388 139.078 64.52C138.949 64.5618 138.816 64.595 138.682 64.6195L138.318 64.6868C137.362 64.8714 136.424 65.1375 135.513 65.482L135.584 65.4418C135.096 65.8108 134.602 66.1486 134.095 66.4784C133.589 66.8062 133.072 67.1198 132.539 67.4073C132.006 67.702 131.455 67.9631 130.889 68.1889C130.312 68.4262 129.708 68.5908 129.09 68.6788L129.358 68.3919L128.478 89.4485L128.42 89.2637C129.007 90.0699 129.53 90.9206 129.985 91.8081C130.455 92.6965 130.813 93.6396 131.052 94.6159C131.166 95.1173 131.219 95.6307 131.209 96.1448C131.198 96.6768 131.068 97.1994 130.827 97.6742C130.58 98.1509 130.216 98.5575 129.77 98.8564C129.335 99.1417 128.858 99.3552 128.356 99.4888C128.233 99.5223 128.11 99.5605 127.987 99.5898L127.613 99.658C127.366 99.7071 127.116 99.7408 126.864 99.759L126.49 99.796C126.43 99.8781 126.893 99.0737 126.703 99.4238L126.713 99.4427L126.734 99.4804L126.775 99.5559C126.801 99.6069 126.83 99.6566 126.861 99.7048C127.161 100.196 127.569 100.613 128.054 100.923C128.538 101.234 129.087 101.431 129.659 101.499C130.102 101.55 130.61 101.518 131.098 101.529L132.572 101.543C133.554 101.56 134.536 101.587 135.517 101.63C139.449 101.765 143.365 102.195 147.231 102.918C149.169 103.287 151.071 103.825 152.915 104.524C153.839 104.884 154.73 105.32 155.58 105.83C156.439 106.341 157.209 106.991 157.856 107.753C158.5 108.534 158.915 109.479 159.055 110.482C159.212 111.461 159.26 112.454 159.2 113.444C159.079 115.41 158.797 117.362 158.356 119.281C157.476 123.108 156.372 126.88 155.05 130.577C152.446 137.98 149.46 145.24 146.192 152.375L146.108 152.196L150.051 153.206C151.368 153.542 152.671 153.886 154.004 154.184C155.326 154.509 156.638 154.88 157.927 155.328C158.572 155.554 159.211 155.799 159.836 156.082C160.472 156.358 161.078 156.697 161.646 157.094C161.937 157.303 162.201 157.548 162.43 157.824C162.682 158.126 162.815 158.51 162.804 158.903C162.801 159.003 162.783 159.103 162.75 159.197C162.728 159.287 162.697 159.375 162.657 159.458C162.585 159.617 162.525 159.779 162.444 159.935C162.362 160.09 162.285 160.247 162.197 160.4L161.905 160.843C161.479 161.421 160.916 161.884 160.266 162.189C159.63 162.489 158.952 162.688 158.255 162.78C156.889 162.952 155.509 162.976 154.139 162.852C152.774 162.763 151.424 162.567 150.076 162.374L150.254 161.922L157.595 166.897C158.229 167.304 158.832 167.759 159.396 168.258C159.684 168.513 159.95 168.791 160.192 169.089C160.464 169.403 160.652 169.78 160.739 170.187C160.779 170.423 160.739 170.665 160.626 170.877C160.57 170.979 160.501 171.074 160.419 171.159C160.34 171.233 160.254 171.301 160.163 171.361C159.823 171.551 159.466 171.707 159.096 171.827C158.387 172.094 157.652 172.282 156.902 172.388C156.153 172.491 155.397 172.523 154.642 172.482C154.268 172.447 153.893 172.418 153.52 172.376L152.411 172.2C150.951 171.898 149.513 171.501 148.104 171.012C145.312 170.005 142.582 168.833 139.929 167.503L140.222 167.32L140.201 172.223L140.201 172.407L140.018 172.407L132.519 172.375L132.376 172.374L132.368 172.235C132.278 170.708 132.245 169.184 132.289 167.658C132.314 166.13 132.455 164.607 132.71 163.1C132.842 162.344 133.051 161.603 133.334 160.89C133.63 160.189 133.924 159.489 134.172 158.772C134.426 158.058 134.611 157.321 134.722 156.571C134.822 155.818 134.853 155.058 134.812 154.301L134.869 154.297Z" fill="white"/>
<path d="M97.4709 66.793C97.9308 66.4318 98.4359 66.1322 98.9733 65.9017C99.5089 65.6632 100.067 65.4788 100.639 65.3512C101.218 65.2287 101.81 65.178 102.401 65.2001C102.993 65.2279 103.573 65.3773 104.105 65.6391C103.54 65.6019 102.973 65.6056 102.409 65.6502C101.855 65.7102 101.305 65.7985 100.76 65.915C100.213 66.0278 99.672 66.1766 99.1256 66.3235L97.4709 66.793Z" fill="white"/>
<path d="M132.518 60.3027L135.17 58.5636L136.505 57.7061C136.954 57.4231 137.398 57.1413 137.87 56.8717L138.128 57.3877C137.661 57.6003 137.188 57.843 136.72 58.0817L135.315 58.8125L132.518 60.3027Z" fill="white"/>
<path d="M134.249 61.745C134.976 61.1905 135.738 60.6832 136.53 60.2263C136.93 59.9948 137.342 59.785 137.764 59.5979C138.197 59.4031 138.648 59.2536 139.112 59.1518L139.194 59.7229C138.76 59.7724 138.332 59.8661 137.917 60.0028C137.489 60.1403 137.07 60.301 136.66 60.4839C135.83 60.8523 135.025 61.2735 134.249 61.745Z" fill="white"/>
<path d="M129.634 60.0143C130.067 60.0613 130.49 60.1748 130.888 60.3507C131.292 60.5166 131.673 60.7335 132.022 60.996C132.381 61.2581 132.694 61.5786 132.947 61.9441C133.207 62.3086 133.359 62.7398 133.384 63.1873C133.157 62.8418 132.894 62.5213 132.6 62.2314C132.308 61.9551 131.999 61.6965 131.676 61.4572C131.029 60.9645 130.332 60.5338 129.634 60.0143Z" fill="white"/>
<path d="M127.614 61.1681C127.722 61.4438 127.782 61.7358 127.793 62.0317C127.81 62.3229 127.791 62.615 127.736 62.9015C127.683 63.1965 127.581 63.4806 127.434 63.7422C127.368 63.884 127.272 64.0105 127.154 64.1136C127.037 64.2167 126.898 64.2942 126.749 64.3411C126.88 64.1023 126.971 63.8431 127.016 63.5744L127.17 62.7919C127.221 62.5271 127.275 62.2601 127.346 61.9902C127.412 61.7089 127.502 61.4339 127.614 61.1681Z" fill="white"/>
<path d="M112.903 45.5915C112.903 45.5915 107.423 50.7837 105.115 51.9375C105.115 51.9375 102.306 49.3001 102.519 52.8029C102.654 55.037 103.24 55.5432 103.24 55.5432C103.24 55.5432 101.653 59.4373 100.211 60.8796C98.7688 62.3219 95.8843 64.6295 95.8843 67.2256C95.8843 69.8217 97.0381 72.9948 94.1536 74.1486C91.269 75.3024 87.5191 75.5909 87.2306 73.2832C86.9422 70.9756 88.3845 67.8026 89.2498 66.9372C90.1152 66.0718 91.8459 63.7642 91.8459 61.745C91.8459 59.7258 94.1536 42.9954 100.5 41.8416C106.846 40.6877 112.903 45.5915 112.903 45.5915Z" fill="white"/>
<path d="M103.24 55.5432C103.342 55.6686 103.437 55.7991 103.525 55.9341C103.586 56.0246 103.655 56.1095 103.731 56.1877C103.788 56.2483 103.861 56.2922 103.942 56.3146C104.006 56.3346 104.071 56.3503 104.137 56.3615C104.224 56.3719 104.309 56.3876 104.394 56.4085C104.353 56.4949 104.293 56.5713 104.22 56.6327C104.146 56.694 104.061 56.7388 103.968 56.7639C103.858 56.7971 103.741 56.7999 103.629 56.772C103.517 56.744 103.415 56.6863 103.333 56.605C103.197 56.4659 103.114 56.2841 103.097 56.0906C103.08 55.8971 103.131 55.7037 103.24 55.5432Z" fill="white"/>
<path d="M103.973 55.3614C104.394 55.6419 104.796 55.9438 105.199 56.2448C105.599 56.549 105.994 56.8591 106.384 57.1748L106.555 57.3127L106.405 57.503C106.243 57.709 106.073 57.9074 105.907 58.1093C105.739 58.3093 105.575 58.5139 105.403 58.7101C105.059 59.1044 104.724 59.5053 104.371 59.8912L104.179 60.1015L103.97 59.9167C103.219 59.2523 102.49 58.563 101.773 57.8601L101.627 57.7172L101.755 57.5884C102.269 57.0744 102.788 56.5656 103.337 56.0831C102.928 56.689 102.489 57.2686 102.044 57.8428L102.027 57.5712C102.815 58.1936 103.591 58.8295 104.345 59.4904L103.944 59.5159C104.283 59.1171 104.638 58.7333 104.985 58.3428C105.158 58.1466 105.341 57.9589 105.518 57.7666C105.697 57.5761 105.872 57.3821 106.056 57.1957L106.077 57.5239C105.714 57.1771 105.357 56.8245 105.004 56.466C104.655 56.1043 104.304 55.7436 103.973 55.3614Z" fill="white"/>
<path d="M111.663 53.2149C112.609 53.2149 112.611 51.7446 111.663 51.7446C110.717 51.7446 110.715 53.2149 111.663 53.2149Z" fill="white"/>
<path d="M109.153 50.7837C109.292 50.5033 109.505 50.2669 109.77 50.1008C110.036 49.923 110.342 49.8124 110.66 49.7786C110.982 49.7385 111.309 49.787 111.605 49.9189C111.896 50.0382 112.146 50.2382 112.326 50.4952C112.015 50.4466 111.752 50.3742 111.486 50.3529C111.233 50.3229 110.976 50.3225 110.723 50.3519C110.183 50.4278 109.656 50.573 109.153 50.7837Z" fill="white"/>
<path d="M112.597 54.8163C112.649 55.0018 112.675 55.1525 112.701 55.2849C112.721 55.388 112.751 55.4888 112.792 55.5855C112.824 55.6626 112.876 55.7298 112.943 55.7802C112.983 55.8217 113.048 55.8511 113.108 55.8994C113.183 55.9423 113.256 55.9906 113.324 56.0439C113.251 56.1023 113.17 56.1488 113.082 56.1815C112.99 56.2079 112.894 56.2164 112.799 56.2068C112.685 56.1967 112.576 56.1564 112.483 56.09C112.39 56.0237 112.316 55.9337 112.27 55.8294C112.194 55.6493 112.185 55.4479 112.245 55.2619C112.305 55.0759 112.43 54.9178 112.597 54.8163Z" fill="white"/>
<path d="M90.8663 72.8061L96.5801 72.9915C98.4828 73.068 100.386 73.124 102.288 73.1783L105.14 73.2628C106.091 73.2946 107.042 73.3121 107.993 73.3151C108.944 73.3204 109.896 73.3026 110.843 73.2271C111.787 73.1896 112.723 73.0274 113.625 72.7448L113.65 72.7358L113.673 72.7393C114.324 72.8365 114.956 73.037 115.544 73.3334C115.847 73.4859 116.118 73.6939 116.345 73.9465C116.547 74.1834 116.778 74.3944 117.032 74.5745C117.286 74.761 117.558 74.9297 117.829 75.1108C118.122 75.29 118.387 75.5131 118.612 75.7722C118.739 75.9323 118.815 76.127 118.829 76.3308L118.853 76.8147C118.865 77.0029 118.842 77.1917 118.785 77.3716C118.717 77.5583 118.604 77.7252 118.455 77.8571C118.191 78.0854 117.892 78.2698 117.569 78.4036L116.681 78.7804C116.113 79.0393 115.577 79.3636 115.084 79.7467C114.592 80.1177 114.158 80.5594 113.796 81.0574C113.712 81.1756 113.638 81.3005 113.576 81.4309C113.512 81.5657 113.451 81.7155 113.388 81.8631C113.264 82.1711 113.124 82.4724 112.968 82.7658C112.804 83.0818 112.59 83.369 112.334 83.6162C112.057 83.8813 111.708 84.0593 111.33 84.1279C111.027 84.169 110.726 84.2265 110.428 84.3002C110.325 84.3311 110.232 84.3916 110.162 84.4742C110.075 84.5845 109.999 84.7033 109.936 84.8287C109.863 84.9613 109.794 85.1054 109.702 85.2642C109.604 85.4555 109.454 85.6148 109.268 85.7235C109.101 85.7937 108.926 85.8459 108.748 85.8792C108.608 85.9168 108.472 85.9678 108.342 86.0315C108.066 86.1729 107.8 86.3332 107.546 86.5111C107.274 86.6881 107.001 86.8665 106.702 87.0276C106.388 87.2188 106.026 87.3152 105.658 87.3053C105.567 87.2986 105.477 87.2855 105.387 87.2661C105.293 87.2494 105.201 87.2213 105.114 87.1825C104.921 87.0918 104.77 86.9327 104.689 86.7362C104.556 86.4218 104.466 86.0911 104.421 85.7529C104.373 85.4403 104.31 85.1303 104.231 84.8241C104.194 84.6825 104.136 84.5469 104.06 84.4216C103.994 84.3188 103.869 84.1761 103.775 84.0548L103.176 83.2912L101.983 81.7647L102.028 81.7283L103.327 83.1589L103.973 83.8739C104.083 84.0023 104.179 84.0952 104.301 84.2544C104.401 84.3996 104.479 84.5586 104.533 84.7263C104.632 85.0396 104.714 85.3578 104.78 85.6796C104.835 85.9787 104.928 86.2694 105.058 86.5447C105.102 86.6485 105.183 86.7324 105.285 86.7801C105.345 86.8045 105.409 86.8212 105.474 86.8297C105.542 86.8425 105.612 86.8504 105.682 86.8535C105.963 86.8487 106.236 86.7624 106.469 86.605C106.734 86.452 106.996 86.2695 107.258 86.0865C107.527 85.8866 107.808 85.7056 108.102 85.5448C108.259 85.4621 108.423 85.3946 108.593 85.3431C108.73 85.3126 108.865 85.2713 108.996 85.2197C109.084 85.1555 109.154 85.0696 109.2 84.9702C109.268 84.8493 109.337 84.7017 109.417 84.5505C109.497 84.3874 109.594 84.2331 109.707 84.0901C109.845 83.9243 110.027 83.7999 110.231 83.7306C110.557 83.6405 110.889 83.5704 111.223 83.5208C111.491 83.4493 111.739 83.3175 111.948 83.1354C112.157 82.9533 112.322 82.7257 112.429 82.4702C112.576 82.2044 112.699 81.9169 112.83 81.623C112.895 81.4749 112.959 81.3274 113.035 81.1719C113.114 81.0131 113.207 80.8612 113.312 80.7178C113.717 80.1777 114.201 79.7011 114.746 79.3035C115.279 78.9037 115.857 78.5676 116.468 78.3019C116.619 78.2308 116.777 78.1782 116.932 78.117C117.078 78.06 117.229 78.0114 117.369 77.9481C117.647 77.8439 117.906 77.6971 118.138 77.513C118.239 77.4299 118.316 77.323 118.365 77.2021C118.413 77.0811 118.43 76.95 118.415 76.8207L118.409 76.3385C118.404 76.2187 118.363 76.1033 118.291 76.0068C118.101 75.7728 117.877 75.5682 117.626 75.3996C117.37 75.2111 117.102 75.0255 116.844 74.82C116.58 74.6159 116.342 74.3801 116.136 74.1179C115.939 73.8818 115.701 73.6844 115.432 73.5359C114.875 73.234 114.271 73.0293 113.646 72.9305L113.694 72.925C113.234 73.0748 112.763 73.1836 112.284 73.2501C111.811 73.3272 111.336 73.3827 110.86 73.4295C110.384 73.4726 109.907 73.5079 109.431 73.5356C108.954 73.5678 108.477 73.5986 108 73.6194C106.092 73.7113 104.183 73.7338 102.274 73.687C101.32 73.6755 100.367 73.6155 99.4143 73.5717C98.4618 73.5209 97.5093 73.4741 96.5582 73.403L93.7068 73.1706C92.7578 73.0746 91.8085 72.9857 90.8618 72.8637L90.8663 72.8061Z" fill="white"/>
<path d="M104.75 78.285C105.133 78.4195 105.498 78.6022 105.835 78.8286C106.008 78.9413 106.172 79.0665 106.326 79.2031C106.461 79.3334 106.607 79.4512 106.763 79.5552C106.86 79.618 106.949 79.6909 107.03 79.7727C107.118 79.8737 107.178 79.9955 107.206 80.1266C107.238 80.3304 107.256 80.5362 107.259 80.7424C107.272 81.1266 107.395 81.4991 107.613 81.8157C107.432 81.7085 107.278 81.5615 107.163 81.3859C107.052 81.2034 106.972 81.0041 106.926 80.7959C106.871 80.5888 106.863 80.3842 106.81 80.2316C106.794 80.1679 106.762 80.109 106.719 80.0594C106.656 80.0039 106.588 79.954 106.517 79.9104C106.345 79.7889 106.185 79.6502 106.042 79.4965C105.914 79.3569 105.769 79.2292 105.628 79.0938C105.34 78.8296 105.041 78.569 104.75 78.285Z" fill="white"/>
<path d="M108.765 76.5197C109.148 76.6542 109.513 76.8368 109.85 77.0633C110.023 77.176 110.187 77.3011 110.341 77.4378C110.476 77.5681 110.622 77.6859 110.778 77.7898C110.875 77.8527 110.964 77.9256 111.045 78.0073C111.133 78.1084 111.194 78.2302 111.221 78.3613C111.253 78.565 111.271 78.7708 111.274 78.9771C111.287 79.3613 111.41 79.7338 111.628 80.0504C111.447 79.9432 111.293 79.7962 111.178 79.6205C111.067 79.4381 110.987 79.2388 110.941 79.0305C110.886 78.8235 110.878 78.6189 110.825 78.4663C110.809 78.4026 110.778 78.3437 110.734 78.2941C110.671 78.2386 110.603 78.1887 110.532 78.145C110.36 78.0236 110.201 77.8849 110.057 77.7311C109.929 77.5916 109.784 77.4639 109.643 77.3285C109.355 77.0642 109.056 76.8036 108.765 76.5197Z" fill="white"/>
<path d="M112.903 74.339C113.287 74.4734 113.652 74.6561 113.989 74.8826C114.161 74.9952 114.326 75.1204 114.48 75.257C114.615 75.3873 114.761 75.5051 114.917 75.6091C115.013 75.672 115.103 75.7449 115.184 75.8266C115.272 75.9276 115.332 76.0495 115.36 76.1805C115.392 76.3843 115.41 76.5901 115.413 76.7963C115.426 77.1806 115.549 77.553 115.767 77.8697C115.586 77.7625 115.432 77.6154 115.316 77.4398C115.206 77.2573 115.126 77.058 115.08 76.8498C115.025 76.6427 115.017 76.4382 114.964 76.2855C114.947 76.2218 114.916 76.1629 114.873 76.1134C114.81 76.0579 114.742 76.008 114.67 75.9643C114.498 75.8428 114.339 75.7042 114.195 75.5504C114.068 75.4109 113.923 75.2831 113.782 75.1477C113.494 74.8835 113.195 74.6229 112.903 74.339Z" fill="white"/>
<path d="M119.538 80.4946C120.345 81.1568 121.111 81.8585 121.862 82.5742C122.617 83.2874 123.347 84.024 124.072 84.7652C124.789 85.5139 125.502 86.2676 126.19 87.0447C126.881 87.8192 127.557 88.608 128.192 89.4367C127.384 88.7751 126.618 88.0735 125.866 87.3577C125.112 86.6444 124.382 85.9078 123.658 85.1661C122.941 84.417 122.228 83.6633 121.54 82.8861C120.849 82.1114 120.173 81.3228 119.538 80.4946Z" fill="white"/>
<path d="M106.831 86.6726C108.319 88.0003 109.827 89.2976 111.345 90.5798C112.87 91.8546 114.409 93.1083 115.998 94.2948C117.571 95.496 119.216 96.5995 120.924 97.5991C121.776 98.0967 122.665 98.529 123.582 98.8922C124.495 99.2772 125.471 99.4941 126.461 99.5327C125.456 99.6053 124.446 99.4785 123.49 99.1595C122.53 98.8557 121.6 98.4659 120.71 97.9951C119.816 97.5375 118.955 97.0194 118.111 96.4791C117.274 95.9293 116.455 95.3524 115.652 94.7561C114.056 93.5493 112.522 92.2696 111.05 90.917C109.573 89.5741 108.165 88.1575 106.831 86.6726Z" fill="white"/>
<path d="M150.097 162.167C149.335 161.877 148.603 161.512 147.913 161.078C147.217 160.645 146.559 160.154 145.946 159.61C144.695 158.518 143.667 157.196 142.917 155.714L142.899 155.679L142.886 155.622C142.189 152.401 141.853 149.11 141.226 145.877C140.927 144.257 140.572 142.649 140.245 141.029C140.166 140.623 140.081 140.22 140.013 139.806C139.973 139.606 139.946 139.388 139.924 139.164C139.894 138.942 139.887 138.801 139.843 138.588C139.695 137.797 139.514 136.98 139.386 136.161C138.816 132.874 138.735 129.52 139.146 126.209C139.554 122.912 140.414 119.687 141.702 116.624L141.784 116.652C140.912 119.811 140.317 123.039 140.007 126.301C139.852 127.922 139.788 129.549 139.815 131.177C139.822 132.806 139.935 134.433 140.153 136.048C140.25 136.861 140.389 137.66 140.488 138.497C140.52 138.689 140.519 138.962 140.53 139.15C140.536 139.337 140.543 139.528 140.568 139.735C140.604 140.138 140.656 140.547 140.706 140.954C140.916 142.584 141.171 144.212 141.483 145.828C142.088 149.065 143.035 152.234 143.646 155.468L143.615 155.376C143.957 156.079 144.361 156.75 144.822 157.382C145.039 157.709 145.304 158.002 145.548 158.31C145.815 158.599 146.069 158.901 146.354 159.176C147.481 160.307 148.751 161.286 150.131 162.088L150.097 162.167Z" fill="white"/>
<path d="M132.627 143.945C132.986 145.98 133.136 148.046 133.073 150.111L133.027 150.893L132.935 151.677C132.861 152.217 132.724 152.747 132.527 153.256C132.44 153.422 132.376 153.6 132.338 153.784C132.337 153.813 132.335 153.791 132.361 153.821C132.42 153.86 132.486 153.889 132.555 153.904C132.768 153.957 132.987 153.982 133.207 153.98C133.443 153.987 133.689 153.972 133.934 153.956C134.922 153.89 135.928 153.719 136.932 153.549C137.941 153.392 138.942 153.186 139.981 153.068L140.375 153.028L140.768 153.004C141.017 152.994 141.268 152.97 141.52 152.951C142.025 152.91 142.53 152.845 143.035 152.777C144.048 152.647 145.059 152.479 146.076 152.32C145.105 152.665 144.115 152.945 143.114 153.194C142.612 153.313 142.107 153.423 141.595 153.513C141.338 153.559 141.081 153.598 140.82 153.627C140.555 153.657 140.333 153.687 140.079 153.736C138.092 154.117 136.097 154.642 133.993 154.819C133.727 154.832 133.461 154.845 133.184 154.834C132.891 154.832 132.599 154.792 132.316 154.714C132.137 154.666 131.969 154.582 131.824 154.467C131.734 154.39 131.658 154.299 131.6 154.196C131.544 154.087 131.512 153.968 131.506 153.846C131.503 153.789 131.502 153.732 131.504 153.676L131.534 153.535C131.545 153.489 131.555 153.44 131.569 153.397L131.619 153.283L131.779 152.926C132.127 152.008 132.337 151.043 132.402 150.063C132.6 148.05 132.616 145.999 132.627 143.945Z" fill="white"/>
<path d="M157.325 167.031C153.61 169.275 144.01 166.76 140.116 164.216C137.998 162.891 135.74 161.804 133.384 160.974C131.942 164.435 132.519 172.224 132.519 172.224H140.018V167.32C152.999 173.666 156.749 172.512 159.633 171.358C162.518 170.204 157.325 167.031 157.325 167.031Z" fill="white"/>
<path d="M144.932 158.109C144.932 158.109 151.009 159.407 153.94 158.663C154.196 158.598 154.432 158.474 154.63 158.299C154.828 158.124 154.981 157.905 155.077 157.66C155.174 157.414 155.21 157.149 155.183 156.886C155.156 156.624 155.068 156.372 154.924 156.15C154.205 154.998 153.078 154.161 151.767 153.805L152.71 154.051C152.71 154.051 163.672 156.359 162.518 159.243C161.364 162.128 159.345 163.57 150.114 162.128C147.409 160.89 144.932 158.109 144.932 158.109Z" fill="white"/>
<path d="M93.1057 88.2066C92.6429 88.4352 92.2039 88.7092 91.7951 89.0243C91.5979 89.174 91.4157 89.3425 91.2511 89.5274C91.0905 89.6997 90.9577 89.8959 90.8576 90.1091C90.4538 90.944 90.9842 91.8508 91.6891 92.5249C92.4205 93.2261 93.2233 93.8489 94.0844 94.383C94.9501 94.9441 95.8432 95.4677 96.726 96.0357L93.1057 88.2066ZM137.867 112.899C133.99 107.222 134.88 103.523 111.697 99.5397C111.697 99.5397 99.1316 96.6516 96.726 96.0357C95.722 95.7257 94.7475 95.3272 93.814 94.8449C92.8551 94.3659 91.9738 93.7453 91.1997 93.004C90.7908 92.6111 90.4691 92.1365 90.2553 91.6113C90.1455 91.3285 90.1002 91.0248 90.1227 90.7223C90.1451 90.4198 90.2349 90.1261 90.3853 89.8627C90.6859 89.3866 91.109 89.0001 91.6103 88.7438C92.0792 88.491 92.5832 88.3099 93.1057 88.2066L92.5856 87.0842C92.5856 87.0842 87.0525 87.1595 87.884 93.1066C88.1284 93.5436 88.4312 93.9454 88.7839 94.3008C88.9516 94.4856 89.1364 94.6499 89.3143 94.8175C89.5093 94.9715 89.6839 95.1461 89.8857 95.2898C90.6668 95.8933 91.5085 96.414 92.3974 96.8433C93.2886 97.2864 94.2023 97.6827 95.1348 98.0306C95.6105 98.1915 96.0792 98.3728 96.5583 98.5371C97.0374 98.6945 97.5164 98.8485 97.9955 99.0367C97.9955 99.0367 125.716 105.076 128.19 106.531C130.667 107.985 135.365 111.133 137.624 121.693H112.73C110.665 121.69 108.648 121.075 106.933 119.924C105.219 118.773 103.885 117.139 103.101 115.229C101.742 111.927 100.357 107.79 99.922 103.858L97.9955 99.0367C97.4891 98.9991 96.9827 98.9306 96.4728 98.8621C95.9732 98.7731 95.4736 98.6569 94.974 98.5405C94.4813 98.4036 93.992 98.2462 93.5061 98.0751C93.0304 97.8767 92.5479 97.6987 92.0894 97.4524C91.6277 97.2182 91.1799 96.9577 90.7481 96.6722C90.3203 96.3768 89.9154 96.0496 89.5367 95.6935C89.3451 95.519 89.1706 95.3206 88.9961 95.1289C88.8352 94.9236 88.6641 94.7286 88.5239 94.5096C88.2225 94.0873 88.0052 93.611 87.884 93.1066C88.712 99.0538 101.452 123.838 102.006 123.975C102.56 124.115 138.339 124.037 138.339 124.037C138.339 124.037 146.127 164.568 146.076 172.264H148.827C148.827 172.264 141.744 118.575 137.867 112.899Z" fill="white"/>
<path d="M101.527 123.287L90.4138 172.263H93.5703L103.946 124.021L101.527 123.287Z" fill="white"/>
<path d="M116.986 124.059L112.687 156.871L115.829 156.578L119.718 124.059C118.803 124.059 117.889 124.059 116.986 124.059Z" fill="white"/>
<path d="M156.531 153.063L152.135 138.162C151.529 139.703 150.929 141.181 150.355 142.565L153.381 153.264L156.531 153.063Z" fill="white"/>
<path d="M129.669 91.8092C130.124 92.6521 130.481 93.5445 130.732 94.4688C132.226 94.7294 136.433 95.9938 137.57 101.967C138.414 102.016 139.283 102.078 140.166 102.155C139.541 92.2879 131.016 91.8255 129.669 91.8092Z" fill="white"/>
<path d="M111.386 57.5325C111.803 57.7374 112.235 57.9118 112.678 58.054C112.888 58.1181 113.101 58.1708 113.317 58.2118C113.541 58.2598 113.774 58.2817 114.042 58.3444C113.834 58.5152 113.582 58.6251 113.316 58.662C113.046 58.7076 112.77 58.6882 112.509 58.6054C112.248 58.5282 112.008 58.3911 111.809 58.2049C111.604 58.0277 111.457 57.7936 111.386 57.5325Z" fill="white"/>
<path d="M104.806 58.9672C104.98 59.1722 105.16 59.3232 105.329 59.4916C105.504 59.6529 105.669 59.8189 105.836 59.9885C106.001 60.1597 106.165 60.3349 106.318 60.5287C106.485 60.7245 106.63 60.9391 106.748 61.1681C106.491 61.1106 106.246 61.0094 106.023 60.8689C105.802 60.7362 105.6 60.5751 105.422 60.3896C105.238 60.2027 105.084 59.9884 104.965 59.7542C104.828 59.5164 104.772 59.2399 104.806 58.9672Z" fill="white"/>
<path d="M159.199 23.9341H128.922C128.75 23.9341 128.58 23.9679 128.422 24.0336C128.263 24.0992 128.119 24.1955 127.998 24.3169C127.876 24.4383 127.78 24.5824 127.714 24.741C127.649 24.8996 127.615 25.0696 127.615 25.2413V43.0382C127.615 43.2099 127.649 43.3799 127.714 43.5385C127.78 43.6971 127.876 43.8412 127.998 43.9626C128.119 44.084 128.263 44.1802 128.422 44.2459C128.58 44.3116 128.75 44.3454 128.922 44.3454H159.199C159.37 44.3454 159.54 44.3116 159.699 44.2459C159.857 44.1802 160.002 44.084 160.123 43.9626C160.244 43.8412 160.341 43.6971 160.406 43.5385C160.472 43.3799 160.506 43.2099 160.506 43.0382V25.2413C160.506 25.0696 160.472 24.8996 160.406 24.741C160.341 24.5824 160.244 24.4383 160.123 24.3169C160.002 24.1955 159.857 24.0992 159.699 24.0336C159.54 23.9679 159.37 23.9341 159.199 23.9341ZM137.969 35.5513C137.69 35.5509 137.418 35.4679 137.186 35.3127C136.954 35.1574 136.773 34.937 136.667 34.6791C136.56 34.4213 136.532 34.1376 136.587 33.864C136.641 33.5903 136.776 33.339 136.973 33.1417C137.17 32.9444 137.422 32.81 137.695 32.7554C137.969 32.7009 138.253 32.7287 138.511 32.8354C138.768 32.942 138.989 33.1226 139.144 33.3545C139.299 33.5864 139.382 33.859 139.383 34.138C139.383 34.3237 139.347 34.5076 139.276 34.6792C139.205 34.8509 139.101 35.0068 138.969 35.1381C138.838 35.2694 138.682 35.3734 138.511 35.4444C138.339 35.5153 138.155 35.5516 137.969 35.5513ZM144.06 35.5513C143.781 35.5516 143.508 35.4691 143.276 35.3143C143.044 35.1595 142.862 34.9393 142.755 34.6815C142.648 34.4237 142.62 34.1399 142.674 33.866C142.728 33.5922 142.862 33.3405 143.059 33.1429C143.256 32.9452 143.508 32.8105 143.782 32.7557C144.055 32.7009 144.339 32.7285 144.597 32.835C144.855 32.9416 145.076 33.1222 145.231 33.3541C145.387 33.5861 145.47 33.8589 145.47 34.138C145.47 34.5122 145.322 34.8711 145.057 35.136C144.793 35.4009 144.435 35.5502 144.06 35.5513ZM150.151 35.5513C149.872 35.5516 149.599 35.4691 149.367 35.3143C149.134 35.1595 148.953 34.9393 148.846 34.6815C148.739 34.4237 148.711 34.1399 148.765 33.8661C148.819 33.5922 148.953 33.3405 149.15 33.1429C149.347 32.9452 149.599 32.8105 149.872 32.7557C150.146 32.7009 150.43 32.7285 150.688 32.835C150.946 32.9416 151.167 33.1222 151.322 33.3541C151.478 33.5861 151.561 33.8589 151.561 34.138C151.561 34.5122 151.412 34.8711 151.148 35.136C150.884 35.4009 150.525 35.5502 150.151 35.5513Z" fill="white"/>
<path d="M130.453 43.5275L127.182 48.2325L136.701 43.7739L130.453 43.5275Z" fill="white"/>
</g>
</svg>
